<svg width="130" height="27" viewBox="0 0 130 27" fill="none" xmlns="http://www.w3.org/2000/svg">
<style>path[fill="black"] { fill: white; }</style>
<g clip-path="url(#clip0_63_2791)">
<path d="M50.9384 20.8234C48.4873 20.8234 46.0597 19.8485 44.8477 18.0752L46.9933 16.3525C47.837 17.652 49.3852 18.5108 50.9643 18.5108C51.6368 18.5108 52.2957 18.3911 52.7909 18.1073C53.2922 17.8198 53.6248 17.3595 53.6248 16.6993C53.6248 16.3858 53.5484 16.1316 53.3895 15.9231C53.2318 15.717 53.0003 15.5665 52.7133 15.4455C52.1443 15.2049 51.303 15.058 50.2364 14.8396C49.1561 14.6175 48.023 14.3732 47.1596 13.8302C46.7297 13.5599 46.37 13.2181 46.1163 12.7701C45.8638 12.3222 45.7135 11.7632 45.7135 11.0511C45.7135 8.63986 47.8161 6.84928 50.9125 6.84928C53.2232 6.84928 55.2715 7.86489 56.2544 9.28896L54.3318 11.0265C53.5238 9.84057 52.2255 9.16185 50.7315 9.16185C50.0799 9.16185 49.5281 9.30747 49.1352 9.58266C48.7398 9.86031 48.512 10.2675 48.512 10.7636C48.512 11.0326 48.5785 11.256 48.7152 11.4411C48.8507 11.625 49.0465 11.7619 49.2867 11.8742C49.7621 12.0964 50.4544 12.2358 51.303 12.416C52.4645 12.6653 53.7467 12.9096 54.7419 13.4735C55.2371 13.7537 55.6558 14.1115 55.9514 14.5854C56.247 15.0568 56.4244 15.6504 56.4244 16.4118C56.4244 19.0785 53.9918 20.8222 50.9396 20.8222L50.9384 20.8234ZM66.2854 19.1217L66.496 18.8774V20.5384H69.3708V7.1109H66.496V15.1136C66.496 17.1361 65.0365 18.2258 63.5757 18.2258C62.7061 18.2258 62.0656 17.9494 61.6456 17.4409C61.2293 16.9362 61.0445 16.2205 61.0445 15.3727V7.1109H58.1697V16.0502C58.1697 17.4977 58.6033 18.6898 59.3768 19.519C60.1491 20.3471 61.2699 20.8246 62.6679 20.8246C64.3886 20.8246 65.5255 20.0151 66.2866 19.1217H66.2854ZM78.7613 20.8234C77.032 20.8234 75.7683 20.1361 74.9356 19.1476L74.7263 18.8983V20.5371H71.8502V2.08594H74.7263V8.77437L74.9356 8.52509C75.7695 7.53664 77.032 6.84928 78.7613 6.84928C80.631 6.84928 82.0955 7.63906 83.0944 8.90271C84.0958 10.1688 84.6341 11.9187 84.6341 13.8363C84.6341 15.754 84.0958 17.5026 83.0944 18.7688C82.0955 20.0324 80.631 20.8222 78.7613 20.8222V20.8234ZM81.7346 13.8376C81.7346 12.5196 81.4255 11.3967 80.8183 10.602C80.2073 9.80355 79.302 9.34572 78.1393 9.34572C77.149 9.34572 76.2733 9.70976 75.6451 10.4107C75.0182 11.1104 74.6487 12.1371 74.6487 13.4476V14.2547C74.6487 15.5393 75.0182 16.5598 75.6451 17.2595C76.272 17.9605 77.149 18.3294 78.1393 18.3294C79.302 18.3294 80.2073 17.8716 80.8183 17.0732C81.4255 16.2785 81.7346 15.1568 81.7346 13.8388V13.8376ZM89.1162 2.08594H86.2414V20.5371H89.1162V2.08594ZM91.587 20.5371H94.4618V7.1109H91.587V20.5384V20.5371ZM111.496 6.84928C109.441 6.84928 108.172 7.84021 107.354 8.71267L107.249 8.82373L107.167 8.69539C106.436 7.55885 105.255 6.84928 103.661 6.84928C101.888 6.84928 100.752 7.63536 100.018 8.52386L99.8062 8.7793V7.10966H96.9314V20.5371H99.8062V12.6393C99.8062 10.6205 101.236 9.52712 102.624 9.52712C103.488 9.52712 104.096 9.84797 104.485 10.4008C104.868 10.9463 105.026 11.7039 105.026 12.5616V20.5371H107.901V12.6393C107.901 10.6205 109.33 9.52712 110.718 9.52712C111.581 9.52712 112.191 9.84797 112.579 10.4008C112.962 10.9463 113.118 11.7052 113.118 12.5616V20.5371H115.993V11.6509C115.993 10.2046 115.547 9.00513 114.768 8.16969C113.988 7.33426 112.866 6.85052 111.495 6.85052L111.496 6.84928ZM124.195 20.8234C122.281 20.8234 120.659 20.1138 119.516 18.8897C118.372 17.6655 117.699 15.9194 117.699 13.8376C117.699 9.88253 120.356 6.85052 124.066 6.85052C126.004 6.85052 127.481 7.58476 128.474 8.77313C129.47 9.96397 129.989 11.62 129.99 13.4735V14.3966H120.432L120.445 14.5274C120.563 15.7195 120.982 16.6907 121.633 17.3644C122.286 18.0394 123.167 18.4097 124.195 18.4097C125.725 18.4097 126.966 17.647 127.432 16.2587L129.872 17.1855C128.91 19.466 126.83 20.8259 124.195 20.8259V20.8234ZM120.568 12.2901H127.092L127.09 12.1692C127.076 11.3917 126.83 10.6575 126.322 10.1182C125.814 9.57649 125.054 9.24206 124.04 9.24206C123.211 9.24206 122.471 9.4901 121.876 9.98125C121.282 10.4724 120.842 11.1992 120.603 12.1433L120.566 12.2913L120.568 12.2901ZM94.6626 3.78273C94.6626 2.85474 93.9137 2.10445 92.9899 2.10321C92.0661 2.10321 91.316 2.85474 91.316 3.78273C91.316 4.71071 92.0661 5.46224 92.9899 5.46224C93.9137 5.46224 94.6626 4.71071 94.6626 3.78273Z" fill="black"/>
<path d="M39.1527 13.4736C39.1527 13.4736 31.8668 24.6349 26.1413 26.9472L25.0602 24.7276C29.2061 22.6926 32.0616 18.4245 32.0616 13.4861C32.0616 8.54776 29.2022 4.27291 25.0516 2.2398L26.1423 0.000965848C31.8678 2.31321 39.1527 13.4736 39.1527 13.4736Z" fill="#04E69B"/>
<path d="M14.1011 2.23884C9.95042 4.27195 7.09105 8.54293 7.09105 13.4852C7.09105 18.4274 9.94656 22.6926 14.0924 24.7267L13.0113 26.9462C7.28585 24.6349 0 13.4736 0 13.4736C0 13.4736 7.28585 2.31224 13.0113 0L14.1011 2.23884Z" fill="#04E69B"/>
<path d="M19.5749 2.59427C13.5726 2.59427 8.70638 7.47084 8.70638 13.4852C8.70638 19.4995 13.5726 24.3761 19.5749 24.3761C25.5772 24.3761 30.4434 19.4995 30.4434 13.4852C30.4434 7.47084 25.5772 2.59427 19.5749 2.59427ZM19.5749 16.2871C18.03 16.2871 16.7782 15.0325 16.7782 13.4842C16.7782 11.936 18.03 10.6823 19.5749 10.6823C21.1198 10.6823 22.3716 11.9369 22.3716 13.4842C22.3716 15.0315 21.1198 16.2871 19.5749 16.2871Z" fill="#04E69B"/>
</g>
<defs>
<clipPath id="clip0_63_2791">
<rect width="129.98" height="26.9472" fill="white"/>
</clipPath>
</defs>
</svg>
